# xmcd
# 
# Track frame offsets:
#     150
#     33427
#     35377
#     48057
#     63061
#     79209
#     92706
#     107018
#     119473
#     135494
#     152585
#     164970
#     182852
#     204564
#     220650
#     236663
# 
# Disc length: 3359
# 
# Revision: 0
# Processed by: cddbd v1.5.2PL0 Copyright (c) Steve Scherf et al.
# Submitted via: BonkEnc v1.0.8
# 
DISCID=d60d1d10
DTITLE=Boss Hoss - Rodeo Radio
DYEAR=0
DGENRE=Country
TTITLE0=youll never walk alone
TTITLE1=intro
TTITLE2=rodeo radio
TTITLE3=ring ring ring
TTITLE4=my favorite game
TTITLE5=i say a little prayer
TTITLE6=im on a high
TTITLE7=hell yeah
TTITLE8=hot stuff
TTITLE9=rodeo queen
TTITLE10=its not unusual
TTITLE11=shake a leg
TTITLE12=mary marry me
TTITLE13=jesus build my hotrod
TTITLE14=upside down
TTITLE15=ca plane pour moi
EXTD=
EXTT0=
EXTT1=
EXTT2=
EXTT3=
EXTT4=
EXTT5=
EXTT6=
EXTT7=
EXTT8=
EXTT9=
EXTT10=
EXTT11=
EXTT12=
EXTT13=
EXTT14=
EXTT15=
PLAYORDER=
